<svg width="240" height="60" viewBox="0 0 240 60" fill="none" xmlns="http://www.w3.org/2000/svg">
<rect x="0.5" y="0.5" width="239" height="59" rx="14.5" fill="white" stroke="black"/>
<path d="M11.2326 30.3344L11.0892 30.2655C10.7735 30.0867 10.5275 29.8243 10.3565 29.4852C10.1092 29.0294 10 28.6015 10 28.1603L10.0342 27.9324C10.0342 27.58 10.1237 27.2633 10.2815 26.9599L10.4249 26.6976C10.4933 26.5532 10.5959 26.4287 10.6854 26.3107C10.7946 26.1862 10.809 26.0272 10.7748 25.8828L10.6854 25.5993C10.5828 25.2469 10.5144 24.8958 10.5144 24.5433L10.4591 24.33C10.4591 23.9365 10.5617 23.5497 10.809 23.2675L10.9866 23.0396C11.1103 22.8607 11.3023 22.7561 11.5141 22.6872C11.6851 22.6315 11.8088 22.4527 11.8298 22.246L11.864 21.6458C11.864 21.1702 12.0903 20.7277 12.4402 20.4031L12.8651 20.0851C12.948 20.0016 13.0361 19.9129 13.1045 19.7671C13.194 19.6638 13.2137 19.518 13.194 19.4147C13.1598 19.2425 13.194 19.1868 13.2835 19.1656C13.565 19.2756 13.7426 19.2411 13.8662 19.0967L14.0925 18.8L14.7226 18.0898C14.9002 17.9176 14.9699 17.593 14.8594 17.3519L14.6542 16.8895C14.62 16.7861 14.6542 16.6616 14.7436 16.6271C14.9699 16.6271 15.1278 16.7106 15.1962 16.855L15.2646 16.9796C15.3738 17.1929 15.6211 17.2975 15.7921 17.2074C16.1762 17.0697 16.4972 17.0352 16.7919 17.0352H17.3536C17.7377 17.0352 18.0521 16.7663 18.1284 16.3595C18.1968 15.8693 18.3678 15.4758 18.6151 15.2135C18.8822 14.9101 19.1768 14.6822 19.5267 14.5033C19.9858 14.2622 20.2674 13.9032 20.3555 13.4474C20.4792 12.8817 20.7738 12.4749 21.1777 12.2126L22.5142 11.4535L22.8983 11.219C23.1246 11.0812 23.3364 10.901 23.5153 10.6877L23.8652 10.2664C24.0362 10.0875 24.2151 9.96958 24.4269 9.91394C24.5979 9.85829 24.8452 9.82385 25.057 9.84505L25.7556 9.89274C26.1055 9.89274 26.3857 9.98283 26.6672 10.106L26.8448 10.1961C27.0224 10.265 27.1947 10.2306 27.2828 10.106L27.4407 10.016L28.1945 9.22235C28.3721 9.04349 28.5786 8.97327 28.8114 9.00904C29.0377 9.04349 29.264 9.13358 29.4758 9.24355C29.7915 9.41578 30.0519 9.48468 30.3532 9.48468H30.5308C30.9149 9.48468 31.2977 9.54032 31.6884 9.62909L31.9489 9.69798C32.2093 9.76688 32.4764 9.66354 32.6474 9.4489C32.7026 9.35881 32.825 9.34556 32.8947 9.41446C32.95 9.4489 32.9631 9.48335 32.9842 9.539C33.0184 9.89142 33.2315 10.1604 33.5117 10.2425L33.7932 10.3326C34.0879 10.4227 34.3549 10.6161 34.5259 10.8639C34.7035 11.1262 34.9166 11.3952 35.156 11.5674L35.3336 11.7463C35.5112 11.9251 35.7519 11.9953 35.9979 11.9741H37.0319C37.4568 11.9741 37.8607 12.0497 38.2658 12.2232C38.65 12.4021 39.0538 12.4365 39.4169 12.2921C39.8076 12.1742 40.2114 12.1199 40.6153 12.1742L41.3691 12.2921C41.719 12.3332 42.0676 12.5054 42.2807 12.7757L42.3701 12.8592C42.5412 13.038 42.7201 13.2659 42.8911 13.515C43.0003 13.7429 43.2476 13.8674 43.487 13.8674H44.5762C44.8433 13.8674 45.1037 13.923 45.3168 14.0463C45.5431 14.2185 45.7352 14.3987 45.9127 14.5775L46.0838 14.8054C46.2956 15.0545 46.3995 15.3857 46.385 15.7434C46.385 16.027 46.5968 16.2681 46.8717 16.2681L47.2282 16.3092C47.4755 16.3092 47.6808 16.4814 47.8044 16.7093L47.982 17.0683L48.4345 18.0898C48.5095 18.2687 48.524 18.4422 48.5095 18.5866C48.5095 18.7589 48.5569 18.9046 48.6805 18.9735L48.8581 19.0981C49.0844 19.2769 49.208 19.5392 49.1738 19.844L49.0502 20.672L49.016 21.0244C48.9818 21.2033 49.0633 21.4312 49.2278 21.5557C49.4882 21.728 49.6119 21.9625 49.625 22.2248V22.5772C49.625 22.7561 49.5908 22.9707 49.454 23.1085C49.3448 23.2529 49.2764 23.4265 49.2764 23.6398L49.3317 24.0465C49.3317 24.33 49.5027 24.5778 49.6816 24.75C49.9289 24.9289 50.0657 25.2124 50.1065 25.4959C50.1749 25.9371 50.1894 26.2895 50.1894 26.642V27.0487C50.1894 27.1931 50.1894 27.3322 50.2446 27.47C50.2788 27.5946 50.3683 27.7191 50.4709 27.7946L50.8208 28.0569C51.1773 28.2848 51.4233 28.5882 51.5614 28.995C51.739 29.3818 51.7877 29.7886 51.7877 30.1953V30.3331C51.7877 30.6511 51.7535 30.9889 51.6509 31.2857C51.5614 31.6103 51.5825 31.9071 51.6983 32.1694C51.8416 32.4185 51.9311 32.7007 51.9653 33.0041C52.0337 33.3565 51.9995 33.7076 51.8758 33.9911L51.8416 34.1156C51.7522 34.329 51.6154 34.5224 51.4378 34.6814C51.2602 34.8602 51.0879 34.9649 50.9853 35.0881C50.8761 35.1915 50.8077 35.3716 50.8616 35.5293L50.909 35.7784C50.9984 36.1308 50.9984 36.4819 50.909 36.7999V36.9443C50.8406 37.2066 50.7379 37.4345 50.6274 37.6478C50.5038 37.8757 50.3328 38.0545 50.1065 38.1791L49.8395 38.3513C49.7158 38.4268 49.6277 38.5858 49.6277 38.7448C49.6277 38.917 49.5593 39.0972 49.4567 39.2006L49.1896 39.5596C49.0186 39.7875 48.7923 39.9809 48.545 40.0843C48.2977 40.2631 48.0859 40.4433 47.9281 40.6155C47.7505 40.8288 47.6124 41.0779 47.5439 41.3257C47.4755 41.6437 47.2282 41.8159 46.9612 41.8159H46.0154C45.768 41.8159 45.5431 41.9947 45.4392 42.2094C45.3155 42.485 45.1919 42.685 45.0353 42.8586C44.8577 43.0374 44.7538 43.2521 44.6788 43.4932C44.6446 43.7065 44.4736 43.8522 44.2947 43.7767C44.0684 43.6734 43.8422 43.7767 43.733 43.9556C43.5278 44.308 43.3147 44.5769 43.0884 44.8048L42.9647 44.9082C42.7319 45.087 42.4372 45.2261 42.1702 45.2261C41.8545 45.2261 41.6979 45.3706 41.6493 45.5786C41.594 45.7574 41.5598 45.9853 41.5401 46.1854C41.5059 46.392 41.4375 46.5855 41.3691 46.7657L41.2796 46.869C41.102 47.138 40.9639 47.4003 40.7863 47.6282L40.7179 47.7381C40.4916 48.0349 40.1904 48.2694 39.8405 48.3529C39.4156 48.4973 39.0525 48.5317 38.6828 48.5317H38.4355C38.2645 48.5317 38.0856 48.6351 37.9633 48.8153L37.8607 48.9941L37.7515 49.2008L37.5252 49.5943C37.3476 49.9123 37.0872 50.1189 36.7372 50.2289C36.3873 50.319 35.9835 50.3535 35.6138 50.3323L35.3323 50.2978C35.085 50.2978 34.86 50.2289 34.6338 50.1189C34.4562 50.0501 34.2089 50.1189 34.1063 50.2978C33.9287 50.5469 33.7156 50.6847 33.4893 50.7602L32.9618 50.9324C32.6119 51.0225 32.2291 51.0225 31.8581 50.9324L31.5766 50.8423C31.4056 50.8423 31.2267 50.7589 31.0833 50.6701C30.9123 50.58 30.7334 50.5456 30.5623 50.5601L30.3295 50.6012C29.9796 50.6357 29.6652 50.6012 29.3495 50.5111L28.8772 50.4012C28.6654 50.3323 28.4734 50.1945 28.3497 49.9944C28.2602 49.8222 28.0682 49.6764 27.8222 49.642H27.2605C26.9106 49.5943 26.5962 49.4698 26.3831 49.2008L25.6845 48.5317L25.4372 48.3184L25.0531 48.0349L24.8268 47.8627C24.5598 47.6838 24.2441 47.5447 23.9086 47.5102L22.8602 47.3314C22.751 47.3314 22.6826 47.2969 22.5787 47.2757L22.1748 47.1857C21.9972 47.1512 21.8249 47.0134 21.7026 46.8332C21.5999 46.661 21.4013 46.5842 21.2303 46.661C20.8804 46.7988 20.6002 46.8332 20.3187 46.8889H20.0714C19.6123 46.9233 19.1939 46.8544 18.769 46.661C18.3507 46.4821 18.0705 46.2198 17.81 45.8806C17.5982 45.5772 17.2825 45.3494 16.8918 45.2805L16.4051 45.1771C16.0552 45.1016 15.7 44.9638 15.3843 44.7492C15.0344 44.5001 14.8568 44.2736 14.72 43.99C14.5832 43.7277 14.4937 43.4243 14.4726 43.1063V42.9685C14.4384 42.6095 14.1911 42.2928 13.8623 42.2094C13.4584 42.0848 13.1572 41.906 12.8967 41.6781C12.6494 41.4436 12.506 41.1124 12.506 40.76L12.5468 39.9796C12.5468 39.6762 12.4573 39.4139 12.2455 39.2204C12.0337 39.0071 11.8956 38.7448 11.8956 38.4613L11.8404 37.8267C11.8062 37.3643 11.7167 36.9085 11.6141 36.4461C11.5115 36.0394 11.6694 35.6313 11.9982 35.4392L12.1219 35.3491C12.2995 35.2246 12.3692 34.9967 12.2653 34.7834L12.1219 34.6112C11.9509 34.4323 11.772 34.3078 11.5944 34.2587C11.4576 34.2177 11.4234 34.0799 11.4234 33.9898L11.5944 33.7765C11.7036 33.6519 11.6838 33.4585 11.5944 33.3552C11.4576 33.2107 11.3892 33.0372 11.3681 32.8583L11.3339 31.6235C11.3339 31.3745 11.3681 31.1267 11.4365 30.8856C11.5115 30.6723 11.4365 30.4232 11.2313 30.3198L11.2326 30.3344ZM28.5944 28.0013C28.718 27.8768 28.697 27.6489 28.5944 27.5601C28.4168 27.4223 28.2931 27.2633 28.1905 27.0845L28.0129 26.8009C27.8959 26.5731 27.7393 26.3796 27.5604 26.2008L27.5262 26.1663C27.3486 26.0285 27.225 25.8484 27.1224 25.635C27.0329 25.4628 27.0329 25.2826 27.1224 25.1038L27.225 24.9315C27.3341 24.7527 27.4026 24.5036 27.4026 24.2969V24.2214C27.4026 24.0492 27.3341 23.869 27.225 23.6967C27.1566 23.5523 27.0882 23.3788 27.054 23.1999V23.0966C26.9987 22.8833 27.054 22.6554 27.1908 22.4752C27.3341 22.2473 27.4381 22.034 27.492 21.7717V21.7306C27.5604 21.5584 27.5262 21.3305 27.417 21.1503C27.3144 20.9714 27.2802 20.7979 27.3486 20.5846L27.4723 20.2322C27.5749 19.9142 27.7393 19.632 27.9445 19.3829L28.1918 19.1206L28.3694 18.9073L28.472 18.8039C28.5747 18.694 28.5957 18.5204 28.5062 18.376C28.4168 18.1971 28.3694 18.0236 28.4036 17.8447L28.4378 17.5956C28.4931 17.2432 28.6154 16.8921 28.8417 16.6086L28.9101 16.5397C29.1706 16.1873 29.506 15.9528 29.8901 15.8296L30.3703 15.6573C30.5755 15.5884 30.7202 15.3539 30.7202 15.126C30.7202 14.8425 30.8097 14.5948 30.9662 14.3669L31.0491 14.2768C31.2267 13.98 31.4398 13.6766 31.5766 13.3586L31.7002 13.1308C31.7344 13.0751 31.7555 13.0062 31.7555 12.9519C31.7555 12.6551 31.5779 12.3862 31.2964 12.3716L30.5295 12.316C30.0914 12.2815 29.652 12.316 29.2271 12.316L27.7406 12.4948C27.5078 12.4948 27.3368 12.6671 27.3157 12.9161C27.3157 13.1652 27.1381 13.3785 26.9316 13.4474L26.3015 13.6196L26.1239 13.6753L25.5964 13.8542C25.2123 13.9787 24.8979 14.2609 24.719 14.6478L24.5822 14.8756C24.4046 15.2691 24.1099 15.5858 23.7389 15.8137C23.389 16.0415 23.2114 16.4138 23.1772 16.8351V17.014C23.143 17.3664 23.0338 17.7175 22.8273 17.9666L22.7378 18.111C22.5945 18.2832 22.5603 18.5178 22.6484 18.7112C22.7378 18.9179 22.7918 19.1524 22.772 19.3803V20.3183C22.772 20.5674 22.5945 20.774 22.4221 20.8429C22.1748 20.933 22.0183 21.1265 21.9499 21.3742L21.8604 21.7266C21.792 22.0857 21.9157 22.4368 22.2103 22.6514C22.4918 22.8581 22.6694 23.1761 22.7378 23.5695V23.8875C22.7931 24.2399 22.9852 24.591 23.2996 24.7712C23.6153 24.9845 23.8613 25.3025 23.9981 25.6549L24.0875 25.9384C24.2309 26.3253 24.5466 26.5532 24.8966 26.5876H24.9992C25.3149 26.5876 25.5951 26.7665 25.774 27.05C25.945 27.3335 26.2265 27.5257 26.5409 27.5813L27.0342 27.7191C27.3355 27.8092 27.617 27.9682 27.8432 28.1947L27.8774 28.2358C28.055 28.3736 28.3365 28.3537 28.4944 28.1603L28.6181 28.0225L28.5944 28.0013ZM30.5939 26.3796C30.7649 26.483 30.9438 26.4273 31.0122 26.2697L31.0675 26.1862C31.1912 25.9371 31.349 25.6894 31.52 25.4761L31.8765 24.9448C31.9239 24.9448 31.9449 24.9103 31.9594 24.8759L32.3843 24.3102C32.5619 24.1379 32.7684 24.0134 33.0144 24.0134C33.2407 24.0134 33.4393 23.8888 33.5419 23.661C33.6103 23.4119 33.7129 23.1774 33.926 22.9853L34.0155 22.8819C34.1931 22.7031 34.3654 22.613 34.543 22.5295C34.7693 22.4951 34.9811 22.454 35.1942 22.454H35.7151C35.9269 22.454 36.1058 22.3705 36.2084 22.1917C36.311 22.0128 36.4689 21.8949 36.6465 21.8048L36.8241 21.7293C37.1056 21.6114 37.42 21.5226 37.7357 21.4881L38.0856 21.4537C38.2974 21.4537 38.5237 21.4537 38.7368 21.5716C38.9078 21.6962 39.1406 21.6816 39.313 21.5372L39.4366 21.4683C39.6971 21.2894 39.9983 21.1503 40.314 21.1159H40.3482C40.6982 21.047 41.0126 21.047 41.3691 21.0602H41.5401C41.89 21.1159 42.1912 21.2391 42.4175 21.5014L42.4728 21.5703C42.6503 21.7492 42.9253 21.8949 43.1713 21.8949H43.4725C43.562 21.8949 43.6435 21.8538 43.6988 21.7704C43.754 21.7147 43.8422 21.6604 43.925 21.6604H44.1026C44.35 21.6604 44.5749 21.7293 44.8012 21.8048L45.1024 21.9293C45.3839 22.0128 45.6786 22.1016 45.9798 22.136H46.1916C46.3284 22.136 46.4179 22.0526 46.4179 21.9293C46.4179 21.7505 46.3837 21.5703 46.2942 21.4325L46.1706 21.149C46.0338 20.9211 45.9233 20.6733 45.8207 20.4455L45.7865 20.3554C45.697 20.1765 45.697 20.003 45.7865 19.8241V19.734C45.8207 19.5962 45.7523 19.4372 45.6089 19.3816H45.4721C45.1905 19.2915 44.9445 19.1325 44.767 18.9059L44.5959 18.7271C44.4184 18.5549 44.3144 18.2859 44.2394 18.0236C44.1566 17.7957 43.9658 17.6168 43.7185 17.6168H42.9779C42.7174 17.5824 42.4846 17.438 42.3267 17.23L42.2583 17.1399C42.1347 16.961 42.0321 16.753 41.9637 16.5397C41.8742 16.3608 41.6821 16.2562 41.5046 16.3118L41.2928 16.3807C40.9428 16.5053 40.5942 16.5529 40.2443 16.5185L39.9628 16.4841C39.6616 16.4841 39.38 16.3595 39.1538 16.1873L38.9762 16.0627C38.8394 15.9528 38.7026 15.8839 38.5381 15.8137C38.3671 15.7448 38.2224 15.7792 38.1198 15.9038L38.0304 16.0071C37.8593 16.186 37.612 16.3251 37.366 16.3595L36.4202 16.4152C36.2426 16.4152 36.0703 16.5053 35.9479 16.6285C35.8046 16.753 35.6467 16.8351 35.4678 16.8696H35.4336C35.2626 16.8696 35.0837 16.9941 34.9127 17.1187V17.1531C34.7351 17.332 34.5088 17.4221 34.276 17.4221L34.2076 17.4565C33.9958 17.4565 33.7892 17.4565 33.5774 17.5122H33.3656C33.071 17.5599 32.8381 17.8089 32.7697 18.1269L32.7013 18.5337C32.6461 18.8172 32.5237 19.0649 32.3514 19.2928C32.1738 19.5061 31.9607 19.6452 31.7002 19.6452H31.4056C31.228 19.6863 31.0491 19.8797 31.0833 20.0864C31.1241 20.3898 31.0833 20.6521 31.0359 20.9211L30.9675 21.2179C30.8925 21.4868 30.7202 21.6935 30.4874 21.7836L30.3848 21.8392H30.3506C30.2479 21.9081 30.173 22.0671 30.2611 22.1917C30.3703 22.3705 30.4045 22.5441 30.3848 22.7229L30.3295 23.2887C30.3295 23.4954 30.2466 23.6954 30.1585 23.869C30.0493 24.0478 30.0493 24.2214 30.1243 24.4002L30.2953 24.7871C30.3848 24.966 30.4045 25.1462 30.3506 25.3528C30.2953 25.5317 30.2611 25.7053 30.2822 25.8841C30.2822 26.063 30.3848 26.2365 30.5295 26.3121L30.5939 26.3796ZM44.4486 39.1529C44.6262 39.3251 44.8867 39.394 45.0998 39.2562L45.4497 39.0283C45.6273 38.9038 45.7654 38.7249 45.8338 38.497V38.4626L46.0114 37.9313L46.114 37.7525L46.189 37.5802L46.2574 37.4557C46.3258 37.3113 46.4284 37.2066 46.6073 37.1523L46.6757 37.1178C46.8191 37.0834 46.9086 36.9456 46.9086 36.7999C46.9086 36.6276 46.9914 36.4819 47.0796 36.3587L47.223 36.2341L47.5729 35.7784V35.7439C47.6755 35.5995 47.7439 35.4405 47.7847 35.2603C47.8189 35.0881 47.7847 34.9079 47.7097 34.7357L47.6755 34.6602C47.6071 34.4879 47.5729 34.3634 47.5518 34.2044L47.5045 33.7076L47.4492 33.1763C47.4492 33.0041 47.5176 32.8239 47.6268 32.6516C47.7439 32.5072 47.832 32.327 47.9083 32.1548V32.0859L47.9425 32.0515C47.9767 31.8726 47.8873 31.6924 47.7307 31.6924C47.5532 31.609 47.3808 31.4645 47.3269 31.2512L47.2716 31.1479C47.1888 30.8299 47.1348 30.5133 47.1348 30.1953L47.169 29.3116V29.256C47.169 28.9592 46.9217 28.7247 46.6415 28.7247H46.6073C46.2574 28.7247 45.9772 28.6213 45.7299 28.3723L45.5931 28.1934L45.2366 27.7933L44.7841 27.262C44.6065 27.0129 44.4341 26.7996 44.2013 26.5863C44.0303 26.4141 43.7632 26.2339 43.5028 26.1994L43.1529 26.1438C42.9753 26.1094 42.749 26.0259 42.5569 25.9027C42.4136 25.7927 42.207 25.8272 42.0636 25.9716L41.8374 26.2206L41.7282 26.2895C41.6045 26.324 41.4888 26.2551 41.4335 26.1107C41.3651 25.904 41.3651 25.6549 41.4677 25.4416V25.3383C41.4677 25.2137 41.3651 25.125 41.2559 25.1594H40.9744C40.6587 25.1594 40.3443 25.125 40.0496 24.9872L39.872 24.9117C39.6944 24.8216 39.4879 24.7739 39.2959 24.7739C39.1183 24.7739 38.9394 24.8083 38.7683 24.9117L38.6999 24.9673C38.4881 25.1051 38.2408 25.1806 37.9948 25.1952H37.4187C37.1516 25.1952 36.8911 25.2853 36.7136 25.4297C36.4873 25.5675 36.2413 25.6576 35.9808 25.7053L35.5086 25.7808C35.2968 25.8285 35.0705 25.9186 34.8719 26.0776C34.7009 26.2564 34.4536 26.3611 34.2273 26.43L34.1378 26.471C33.8563 26.5545 33.6103 26.7334 33.4393 26.9957L33.2275 27.209C33.1039 27.3879 33.1039 27.5959 33.2275 27.7747C33.3301 27.9536 33.5432 28.0026 33.755 27.9536L34.0155 27.8436C34.1523 27.7959 34.3167 27.8436 34.4338 27.9125C34.543 28.0026 34.7009 28.0569 34.8587 28.0371L35.2968 27.9894C35.5441 27.9894 35.7901 27.9894 36.0295 28.0583C36.2965 28.1484 36.5228 28.2371 36.7346 28.4107C36.9464 28.5895 37.1727 28.6598 37.4331 28.6942C37.7002 28.7287 37.9606 28.7843 38.2079 28.8731L38.379 28.9075C38.5566 28.9632 38.7013 29.0797 38.8039 29.2599C38.8933 29.4043 38.9749 29.6124 38.9749 29.7912V29.8469C38.9749 30.0535 39.1525 30.1993 39.3314 30.1993H39.434C39.7155 30.1993 40.0167 30.2337 40.3114 30.3238L40.4351 30.3715C40.6127 30.447 40.785 30.5504 40.9073 30.7306C41.0507 30.9028 41.1336 31.083 41.1888 31.2552L41.2441 31.5043C41.2914 31.7732 41.3125 32.0356 41.3125 32.3191V32.4092C41.3125 32.5814 41.4361 32.7616 41.6282 32.8305C41.8058 32.865 42.0123 32.9405 42.211 33.0438L42.2938 33.0783C42.5267 33.216 42.753 33.3962 42.924 33.6095L43.0134 33.7341C43.2463 33.9964 43.3633 34.3343 43.3633 34.6655V34.79C43.3633 35.059 43.316 35.3213 43.2265 35.5704C43.1581 35.7837 43.2265 36.0328 43.4528 36.1016L43.5764 36.1917C43.8435 36.2951 44.0698 36.4885 44.2408 36.7164C44.4184 36.9853 44.4881 37.2821 44.4881 37.6001V38.1314C44.4539 38.3102 44.4052 38.4493 44.3171 38.5726C44.2289 38.6958 44.2276 38.876 44.3171 39.0005L44.4197 39.1727L44.4486 39.1529ZM33.2249 30.1065H33.1907C33.1157 30.1065 33.0815 30.1966 33.1012 30.2854L33.1696 30.6378C33.238 30.9213 33.2722 31.2035 33.313 31.4871C33.3472 31.7706 33.484 32.0117 33.6972 32.1906H33.7656C34.0326 32.4039 34.1905 32.7219 34.2036 33.0398V33.9235C34.1694 34.0958 34.2036 34.276 34.3128 34.4204L34.3957 34.5038C34.5733 34.7171 34.643 34.9662 34.6627 35.214L34.7101 36.1864C34.7101 36.4143 34.5733 36.6078 34.3602 36.6422L34.1891 36.6766C34.0655 36.6766 34.0116 36.8211 34.0116 36.9456C34.0116 37.0834 34.0668 37.2424 34.1142 37.3868V37.4212C34.1694 37.5935 34.1891 37.7737 34.1694 37.9525L34.101 38.4282C34.0326 38.7806 33.9234 39.0972 33.7511 39.4152L33.6274 39.6285C33.538 39.8007 33.4156 39.912 33.2709 39.9809C33.0999 40.0498 32.9763 40.1942 32.921 40.3678L32.7842 41.0024C32.6948 41.3615 32.5369 41.7125 32.3251 42.065H32.2909C32.0791 42.3485 31.8186 42.5962 31.5029 42.7685L31.2911 42.9129L30.7636 43.1752C30.5926 43.2507 30.4821 43.4097 30.4479 43.6032L30.365 44.1835C30.3098 44.5359 30.1874 44.8393 29.9401 45.0672L29.7139 45.3361L29.4468 45.5984L29.1864 45.882C28.9746 46.131 28.6588 46.2344 28.3089 46.1854L27.6788 46.0608L27.096 45.9853H26.9382C26.8698 46.0608 26.8553 46.1642 26.904 46.2688C27.0276 46.4821 27.2197 46.6279 27.4315 46.6279L27.8156 46.6968C27.9932 46.6968 28.2063 46.7869 28.3773 46.869C28.5549 46.9935 28.7272 47.0823 28.939 47.138H28.9732C29.2061 47.228 29.4455 47.2413 29.6783 47.228L29.9388 47.187C30.2401 47.1525 30.5216 47.187 30.761 47.2969L30.9728 47.3658C31.0622 47.4003 31.199 47.3658 31.2885 47.2757C31.3977 47.1724 31.5003 47.1035 31.6384 47.0479L31.7818 47.0134C32.0081 46.9445 32.2343 46.9034 32.4803 46.9034H32.6237C32.8289 46.9034 33.0276 46.9445 33.1999 47.0479L33.2683 47.0823C33.392 47.138 33.5353 47.0823 33.6248 46.979C33.6722 46.8544 33.7958 46.7299 33.9195 46.6265L34.3575 46.3231L34.639 46.1443L34.7824 46.0608C34.9534 45.9363 35.2007 45.882 35.4125 45.882L36.0427 45.8263C36.29 45.7919 36.5018 45.6196 36.5702 45.3706C36.6386 45.1016 36.7412 44.8393 36.9201 44.6114C37.0977 44.3769 37.27 44.1835 37.4476 44.0112C37.6739 43.8324 37.9001 43.7423 38.1461 43.7277H38.2895C38.571 43.6721 38.7762 43.4097 38.7618 43.1275V41.9404C38.796 41.7682 38.8644 41.5337 38.967 41.3601L39.3235 40.8288L39.4603 40.65C39.5695 40.5599 39.6379 40.4433 39.7615 40.2976L39.9326 40.0697C40.0417 39.8908 40.0417 39.6629 39.8983 39.504C39.7273 39.3251 39.6379 39.076 39.6037 38.8349V38.7594C39.5695 38.4758 39.5695 38.1791 39.651 37.8757V37.7922C39.7405 37.5577 39.8628 37.3298 40.0075 37.1165C40.1443 36.9443 40.1246 36.6952 39.9523 36.5508L39.651 36.2885C39.4037 36.0752 39.2669 35.7572 39.2327 35.4392L39.1985 35.0868C39.1985 34.9768 39.1985 34.8589 39.1643 34.7344L39.1301 34.4654C39.0893 34.1686 38.9183 33.9341 38.671 33.7619L38.5473 33.7275C38.3698 33.6175 38.1974 33.4585 38.054 33.2518C37.9172 33.073 37.8488 32.8239 37.7936 32.5761L37.7383 32.2794C37.7383 32.1694 37.6699 32.1005 37.5673 32.0515L36.7241 31.7825C36.5465 31.7481 36.3742 31.6103 36.2518 31.4857H36.2176C36.1084 31.3413 35.9361 31.3413 35.8269 31.4447L35.6559 31.6235C35.6217 31.6792 35.5809 31.6924 35.5323 31.6792C35.4231 31.6792 35.3547 31.5891 35.3889 31.5003C35.4231 31.2168 35.3205 30.9346 35.0942 30.7624L34.8614 30.5835L34.3404 30.2311C34.197 30.1754 33.9839 30.2311 33.9155 30.4033L33.8471 30.5133C33.8471 30.5477 33.7919 30.561 33.7787 30.5822C33.7037 30.5822 33.6011 30.5822 33.6011 30.4921L33.5459 30.402C33.4985 30.2986 33.3749 30.2298 33.2644 30.1953L33.2249 30.1065ZM31.1214 31.8726L31.032 31.7825C30.9425 31.7136 30.8544 31.7269 30.7649 31.817C30.6413 32.0303 30.5387 32.2582 30.4834 32.4927V32.5271C30.4361 32.755 30.223 32.914 30.0112 32.8795H29.8059C29.5586 32.8795 29.3679 33.0928 29.3679 33.3353C29.3679 33.6533 29.2587 33.9765 29.0666 34.219L28.964 34.329C28.7864 34.5568 28.526 34.7158 28.2589 34.8046L28.1221 34.839C27.9445 34.8947 27.8064 35.0179 27.7722 35.2259C27.7722 35.4048 27.663 35.5849 27.5249 35.7227L27.3473 35.8605C27.1355 36.095 26.8198 36.2196 26.5041 36.254L25.6266 36.3441C25.3451 36.3441 25.1057 36.5163 24.9281 36.7853C24.7505 37.0476 24.4901 37.2265 24.2296 37.2609L23.8389 37.2954C23.5574 37.3298 23.2627 37.3298 22.9615 37.2609L22.7905 37.2265L22.3103 37.1019C22.1393 37.0463 21.9946 37.1019 21.892 37.2265L21.7144 37.4544C21.4881 37.7167 21.1593 37.8412 20.837 37.8068L19.6991 37.669C19.5215 37.669 19.3834 37.5789 19.2268 37.4901C19.0492 37.3868 18.9256 37.2622 18.8019 37.1377L18.3639 36.6064C18.3165 36.572 18.227 36.5508 18.1376 36.572L17.8903 36.6753L16.9102 36.9244C16.7327 36.98 16.5064 36.9244 16.3341 36.8211C16.1565 36.6767 15.9434 36.6422 15.7316 36.6422H15.5053C15.2935 36.6978 15.1554 36.9257 15.2238 37.139L15.2922 37.4915C15.3474 37.6703 15.333 37.8783 15.2448 38.0572C15.1567 38.236 15.1764 38.4096 15.2922 38.5885L15.4014 38.7263C15.5382 38.9396 15.7513 39.1197 15.9289 39.292C16.0999 39.4708 16.2788 39.6444 16.4156 39.8789L16.6827 40.3545C16.8195 40.6036 17.0326 40.7414 17.3128 40.7414C17.5732 40.7414 17.8403 40.8315 18.0455 41.0037L18.573 41.5006C18.7164 41.6251 18.9229 41.645 19.0663 41.535L19.1558 41.5006C19.2584 41.5006 19.3268 41.5695 19.3268 41.6794V41.7695C19.3268 41.9974 19.5044 42.2107 19.7306 42.2942L20.5186 42.473C20.8001 42.5631 21.0803 42.6519 21.3474 42.8254H21.4842C21.6276 42.8254 21.7512 42.7009 21.7315 42.5419V41.9272C21.7315 41.7483 21.7999 41.5681 21.9433 41.4992L22.0327 41.4648C22.1156 41.4992 22.2038 41.5681 22.1696 41.6437V41.9404C22.1696 42.1683 22.238 42.3816 22.3958 42.5406C22.5734 42.7195 22.7997 42.7539 22.9917 42.685C23.2035 42.5949 23.4166 42.575 23.6429 42.5949L24.2941 42.6294C24.6098 42.6638 24.9044 42.6294 25.1715 42.5048C25.4872 42.4015 25.7477 42.2557 25.9937 42.0636L26.0963 41.9947L26.6238 41.5191C26.8014 41.3403 27.0276 41.2502 27.2407 41.2502H27.9393C28.2892 41.2157 28.6102 40.8977 28.6444 40.5466L28.7128 40.1942C28.7128 39.9597 28.8154 39.753 28.9732 39.5729C29.1508 39.394 29.3232 39.2893 29.5008 39.2204L29.7125 39.1303C30.0072 39.0058 30.2401 38.7435 30.3427 38.4268L30.4453 37.9989C30.5347 37.6465 30.7123 37.2954 30.9728 37.0675L31.007 37.0264C31.2188 36.8542 31.2543 36.5018 31.1162 36.254L31.0609 36.1295C30.9373 35.9506 30.9175 35.6883 31.0057 35.4604C31.0951 35.2113 31.1833 34.998 31.3214 34.7847L31.499 34.5356C31.5674 34.3978 31.5674 34.1832 31.4648 34.06C31.3556 33.9222 31.2872 33.742 31.2872 33.5698L31.253 33.3207V32.7205C31.2872 32.5417 31.253 32.3138 31.1977 32.1336L31.1293 31.9269L31.1214 31.8726ZM28.6141 30.5265V30.4788C28.6141 30.3 28.5049 30.1953 28.3668 30.1953H27.9077C27.7367 30.2298 27.5578 30.2298 27.4144 30.1953H26.6264C26.2226 30.1953 25.8384 30.1198 25.4543 30.0164L25.0294 29.9131L24.6795 29.8031L23.8915 29.5408C23.4666 29.4163 23.1509 29.1341 22.9602 28.7472L22.8707 28.5683C22.7471 28.306 22.4866 28.1616 22.2261 28.2159C21.9249 28.2159 21.6302 28.2159 21.3487 28.0781L21.1369 27.988C20.733 27.8092 20.4384 27.4568 20.4384 26.9811L20.3634 26.5055C20.316 26.2564 20.1582 26.0299 19.9451 25.9398C19.6978 25.8298 19.4728 25.6907 19.24 25.533L19.1571 25.4774C18.89 25.2641 18.6638 24.9872 18.5401 24.6493L18.5059 24.546C18.4165 24.2625 18.4033 23.9591 18.4717 23.6623L18.5059 23.5523C18.5743 23.3244 18.5954 23.0966 18.5954 22.8488C18.5954 22.6355 18.5059 22.4209 18.3481 22.2619L18.1008 22.034C17.8192 21.8061 17.6482 21.4683 17.6285 21.096C17.5943 20.7091 17.5943 20.3368 17.6627 19.9645V19.8612C17.6627 19.6479 17.4851 19.5088 17.3128 19.5088H17.2575C17.0313 19.5088 16.8392 19.6466 16.73 19.8612C16.6471 20.1103 16.5038 20.3024 16.3459 20.4958L16.2775 20.5859L15.75 21.1172C15.5724 21.2894 15.4685 21.5584 15.4343 21.8207C15.4001 22.0896 15.3317 22.352 15.2225 22.6011L15.1883 22.6911C15.0988 22.8978 14.962 23.0979 14.7844 23.2224C14.6134 23.3602 14.4898 23.5748 14.4898 23.7815L14.4555 24.5963C14.4555 24.9488 14.4003 25.3065 14.278 25.6589L14.2438 25.7967C14.1543 26.0312 14.2438 26.2723 14.4555 26.3836L15.1883 26.7016L15.2567 26.736C15.3119 26.736 15.3317 26.7705 15.3461 26.8261C15.4014 26.895 15.3461 26.9984 15.2909 26.9984L15.1199 27.0884C15.0173 27.1229 14.9423 27.2329 14.9081 27.3574L14.8739 27.5296V27.5641L14.6963 28.5577C14.6621 28.6955 14.6621 28.8545 14.6621 29.0135C14.6621 29.1579 14.7515 29.2825 14.8739 29.3315L15.258 29.5103C15.4356 29.6137 15.6487 29.7382 15.7855 29.8628L15.9631 30.0072C16.0105 30.0761 16.0999 30.145 16.1683 30.1794L16.2433 30.2483C16.3669 30.3583 16.4485 30.4974 16.4906 30.655L16.6616 31.4486C16.6616 31.662 16.8392 31.8421 17.0115 31.8898L17.2931 31.9799C17.2931 31.9799 17.3483 31.9799 17.3825 32.0144L17.7324 32.1243C18.0139 32.2144 18.2599 32.3734 18.473 32.5801C18.6848 32.759 18.8914 32.9868 19.069 33.2359L19.1374 33.3048C19.2807 33.4837 19.4873 33.5738 19.6991 33.5181C19.9109 33.4625 20.1371 33.4492 20.3634 33.4492H20.6304C20.8014 33.4492 21.0343 33.4969 21.2264 33.6215C21.3974 33.7314 21.6302 33.8003 21.8367 33.8904H21.892C22.1038 33.9805 22.33 33.9381 22.5089 33.8215C22.68 33.6771 22.9128 33.6082 23.1391 33.6082L23.9612 33.6559C24.1388 33.6559 24.3112 33.6215 24.3993 33.4837H24.4335L24.7347 33.2001L24.8242 33.1101C24.961 32.9378 25.1741 32.861 25.3793 32.8477H26.1739C26.3791 32.8477 26.5777 32.6689 26.6606 32.4953C26.7501 32.3164 26.9277 32.1707 27.1329 32.1363L27.4894 32.0674C27.6262 32.0674 27.7498 31.9428 27.8051 31.7838C27.8524 31.6116 27.9419 31.4659 28.0656 31.3625L28.3471 31.079C28.5247 30.9001 28.6141 30.7266 28.6483 30.5133L28.6141 30.5265Z" fill="black"/>
<path d="M73.1445 21.4336V19.5C73.3659 19.6953 73.6296 19.8711 73.9355 20.0273C74.248 20.1836 74.5736 20.3171 74.9121 20.4277C75.2572 20.5319 75.6022 20.6133 75.9473 20.6719C76.2923 20.7305 76.6113 20.7598 76.9043 20.7598C77.9134 20.7598 78.6654 20.5742 79.1602 20.2031C79.6615 19.8255 79.9121 19.2852 79.9121 18.582C79.9121 18.2044 79.8275 17.8757 79.6582 17.5957C79.4954 17.3158 79.2676 17.0618 78.9746 16.834C78.6816 16.5996 78.3333 16.3783 77.9297 16.1699C77.5326 15.9551 77.1029 15.7305 76.6406 15.4961C76.1523 15.2487 75.6966 14.998 75.2734 14.7441C74.8503 14.4902 74.4824 14.2103 74.1699 13.9043C73.8574 13.5983 73.61 13.2533 73.4277 12.8691C73.252 12.4785 73.1641 12.0228 73.1641 11.502C73.1641 10.8639 73.304 10.3105 73.584 9.8418C73.8639 9.36654 74.2318 8.97591 74.6875 8.66992C75.1432 8.36393 75.6608 8.13607 76.2402 7.98633C76.8262 7.83659 77.4219 7.76172 78.0273 7.76172C79.4076 7.76172 80.4134 7.92773 81.0449 8.25977V10.1055C80.2181 9.53255 79.1569 9.24609 77.8613 9.24609C77.5033 9.24609 77.1452 9.28516 76.7871 9.36328C76.429 9.4349 76.11 9.55534 75.8301 9.72461C75.5501 9.89388 75.3223 10.112 75.1465 10.3789C74.9707 10.6458 74.8828 10.9714 74.8828 11.3555C74.8828 11.7135 74.9479 12.0228 75.0781 12.2832C75.2148 12.5436 75.4134 12.7812 75.6738 12.9961C75.9342 13.2109 76.25 13.4193 76.6211 13.6211C76.9987 13.8229 77.4316 14.0443 77.9199 14.2852C78.4212 14.5326 78.8965 14.793 79.3457 15.0664C79.7949 15.3398 80.1888 15.6426 80.5273 15.9746C80.8659 16.3066 81.1328 16.6745 81.3281 17.0781C81.5299 17.4818 81.6309 17.944 81.6309 18.4648C81.6309 19.1549 81.4941 19.7409 81.2207 20.2227C80.9538 20.6979 80.5892 21.0853 80.127 21.3848C79.6712 21.6842 79.1439 21.8991 78.5449 22.0293C77.946 22.166 77.3145 22.2344 76.6504 22.2344C76.429 22.2344 76.1556 22.2148 75.8301 22.1758C75.5046 22.1432 75.1725 22.0911 74.834 22.0195C74.4954 21.9544 74.1732 21.873 73.8672 21.7754C73.5677 21.6712 73.3268 21.5573 73.1445 21.4336ZM92.2461 17.4004H85.1855C85.2116 18.5137 85.5111 19.373 86.084 19.9785C86.6569 20.584 87.4447 20.8867 88.4473 20.8867C89.5736 20.8867 90.6087 20.5156 91.5527 19.7734V21.2773C90.6738 21.9154 89.5117 22.2344 88.0664 22.2344C86.6536 22.2344 85.5436 21.7819 84.7363 20.877C83.929 19.9655 83.5254 18.6862 83.5254 17.0391C83.5254 15.4831 83.9648 14.2168 84.8438 13.2402C85.7292 12.2572 86.8262 11.7656 88.1348 11.7656C89.4434 11.7656 90.4557 12.1888 91.1719 13.0352C91.888 13.8815 92.2461 15.0566 92.2461 16.5605V17.4004ZM90.6055 16.043C90.599 15.1185 90.3743 14.3991 89.9316 13.8848C89.4954 13.3704 88.8867 13.1133 88.1055 13.1133C87.3503 13.1133 86.709 13.3835 86.1816 13.9238C85.6543 14.4642 85.3288 15.1706 85.2051 16.043H90.6055ZM102.715 17.4004H95.6543C95.6803 18.5137 95.9798 19.373 96.5527 19.9785C97.1257 20.584 97.9134 20.8867 98.916 20.8867C100.042 20.8867 101.077 20.5156 102.021 19.7734V21.2773C101.143 21.9154 99.9805 22.2344 98.5352 22.2344C97.1224 22.2344 96.0124 21.7819 95.2051 20.877C94.3978 19.9655 93.9941 18.6862 93.9941 17.0391C93.9941 15.4831 94.4336 14.2168 95.3125 13.2402C96.1979 12.2572 97.2949 11.7656 98.6035 11.7656C99.9121 11.7656 100.924 12.1888 101.641 13.0352C102.357 13.8815 102.715 15.0566 102.715 16.5605V17.4004ZM101.074 16.043C101.068 15.1185 100.843 14.3991 100.4 13.8848C99.9642 13.3704 99.3555 13.1133 98.5742 13.1133C97.819 13.1133 97.1777 13.3835 96.6504 13.9238C96.123 14.4642 95.7975 15.1706 95.6738 16.043H101.074ZM124.834 22H123.232V16.2578C123.232 15.151 123.06 14.3503 122.715 13.8555C122.376 13.3607 121.803 13.1133 120.996 13.1133C120.312 13.1133 119.73 13.4258 119.248 14.0508C118.773 14.6758 118.535 15.4245 118.535 16.2969V22H116.934V16.0625C116.934 14.0964 116.175 13.1133 114.658 13.1133C113.955 13.1133 113.376 13.4095 112.92 14.002C112.464 14.5879 112.236 15.3529 112.236 16.2969V22H110.635V12H112.236V13.582H112.275C112.985 12.3711 114.02 11.7656 115.381 11.7656C116.064 11.7656 116.66 11.9577 117.168 12.3418C117.676 12.7194 118.024 13.2174 118.213 13.8359C118.955 12.4557 120.062 11.7656 121.533 11.7656C123.734 11.7656 124.834 13.123 124.834 15.8379V22ZM135.82 12L131.221 23.6016C130.4 25.6719 129.248 26.707 127.764 26.707C127.347 26.707 126.999 26.6647 126.719 26.5801V25.1445C127.064 25.2617 127.38 25.3203 127.666 25.3203C128.473 25.3203 129.079 24.8385 129.482 23.875L130.283 21.9805L126.377 12H128.154L130.859 19.6953C130.892 19.793 130.96 20.0469 131.064 20.457H131.123C131.156 20.3008 131.221 20.0534 131.318 19.7148L134.16 12H135.82ZM144.678 20.5547H144.639V26.5996H143.037V12H144.639V13.7578H144.678C145.465 12.4297 146.618 11.7656 148.135 11.7656C149.424 11.7656 150.43 12.2148 151.152 13.1133C151.875 14.0052 152.236 15.2031 152.236 16.707C152.236 18.3802 151.829 19.7214 151.016 20.7305C150.202 21.7331 149.089 22.2344 147.676 22.2344C146.38 22.2344 145.381 21.6745 144.678 20.5547ZM144.639 16.5215V17.918C144.639 18.7448 144.906 19.4479 145.439 20.0273C145.98 20.6003 146.663 20.8867 147.49 20.8867C148.46 20.8867 149.219 20.5156 149.766 19.7734C150.319 19.0312 150.596 17.9993 150.596 16.6777C150.596 15.5645 150.339 14.6921 149.824 14.0605C149.31 13.429 148.613 13.1133 147.734 13.1133C146.803 13.1133 146.055 13.4388 145.488 14.0898C144.922 14.7344 144.639 15.5449 144.639 16.5215ZM160.01 13.6211C159.73 13.4062 159.326 13.2988 158.799 13.2988C158.115 13.2988 157.542 13.6211 157.08 14.2656C156.624 14.9102 156.396 15.7891 156.396 16.9023V22H154.795V12H156.396V14.0605H156.436C156.663 13.3574 157.012 12.8105 157.48 12.4199C157.949 12.0228 158.473 11.8242 159.053 11.8242C159.469 11.8242 159.788 11.8698 160.01 11.9609V13.6211ZM165.928 22.2344C164.45 22.2344 163.268 21.7689 162.383 20.8379C161.504 19.9004 161.064 18.6602 161.064 17.1172C161.064 15.4375 161.523 14.1257 162.441 13.1816C163.359 12.2376 164.6 11.7656 166.162 11.7656C167.653 11.7656 168.815 12.2246 169.648 13.1426C170.488 14.0605 170.908 15.3333 170.908 16.9609C170.908 18.556 170.456 19.8353 169.551 20.7988C168.652 21.7559 167.445 22.2344 165.928 22.2344ZM166.045 13.1133C165.016 13.1133 164.202 13.4648 163.604 14.168C163.005 14.8646 162.705 15.8281 162.705 17.0586C162.705 18.2435 163.008 19.1777 163.613 19.8613C164.219 20.5449 165.029 20.8867 166.045 20.8867C167.08 20.8867 167.874 20.5514 168.428 19.8809C168.988 19.2103 169.268 18.2565 169.268 17.0195C169.268 15.7695 168.988 14.806 168.428 14.1289C167.874 13.4518 167.08 13.1133 166.045 13.1133ZM182.002 21.1992C182.002 24.8711 180.244 26.707 176.729 26.707C175.492 26.707 174.411 26.4727 173.486 26.0039V24.4023C174.613 25.0273 175.687 25.3398 176.709 25.3398C179.17 25.3398 180.4 24.0312 180.4 21.4141V20.3203H180.361C179.6 21.5964 178.454 22.2344 176.924 22.2344C175.68 22.2344 174.678 21.7917 173.916 20.9062C173.161 20.0143 172.783 18.8197 172.783 17.3223C172.783 15.623 173.19 14.2721 174.004 13.2695C174.824 12.2669 175.944 11.7656 177.363 11.7656C178.711 11.7656 179.71 12.306 180.361 13.3867H180.4V12H182.002V21.1992ZM180.4 17.4785V16.0039C180.4 15.2096 180.13 14.5293 179.59 13.9629C179.056 13.3965 178.389 13.1133 177.588 13.1133C176.598 13.1133 175.824 13.4746 175.264 14.1973C174.704 14.9134 174.424 15.9193 174.424 17.2148C174.424 18.3281 174.691 19.2201 175.225 19.8906C175.765 20.5547 176.478 20.8867 177.363 20.8867C178.262 20.8867 178.991 20.5677 179.551 19.9297C180.117 19.2917 180.4 18.4746 180.4 17.4785ZM190.459 13.6211C190.179 13.4062 189.775 13.2988 189.248 13.2988C188.564 13.2988 187.992 13.6211 187.529 14.2656C187.074 14.9102 186.846 15.7891 186.846 16.9023V22H185.244V12H186.846V14.0605H186.885C187.113 13.3574 187.461 12.8105 187.93 12.4199C188.398 12.0228 188.923 11.8242 189.502 11.8242C189.919 11.8242 190.238 11.8698 190.459 11.9609V13.6211ZM200.234 17.4004H193.174C193.2 18.5137 193.499 19.373 194.072 19.9785C194.645 20.584 195.433 20.8867 196.436 20.8867C197.562 20.8867 198.597 20.5156 199.541 19.7734V21.2773C198.662 21.9154 197.5 22.2344 196.055 22.2344C194.642 22.2344 193.532 21.7819 192.725 20.877C191.917 19.9655 191.514 18.6862 191.514 17.0391C191.514 15.4831 191.953 14.2168 192.832 13.2402C193.717 12.2572 194.814 11.7656 196.123 11.7656C197.432 11.7656 198.444 12.1888 199.16 13.0352C199.876 13.8815 200.234 15.0566 200.234 16.5605V17.4004ZM198.594 16.043C198.587 15.1185 198.363 14.3991 197.92 13.8848C197.484 13.3704 196.875 13.1133 196.094 13.1133C195.339 13.1133 194.697 13.3835 194.17 13.9238C193.643 14.4642 193.317 15.1706 193.193 16.043H198.594ZM202.061 21.6387V19.9199C202.933 20.5645 203.893 20.8867 204.941 20.8867C206.348 20.8867 207.051 20.418 207.051 19.4805C207.051 19.2135 206.989 18.9889 206.865 18.8066C206.748 18.6178 206.585 18.4518 206.377 18.3086C206.175 18.1654 205.934 18.0384 205.654 17.9277C205.381 17.8105 205.085 17.6901 204.766 17.5664C204.323 17.3906 203.932 17.2148 203.594 17.0391C203.262 16.8568 202.982 16.6549 202.754 16.4336C202.533 16.2057 202.363 15.9486 202.246 15.6621C202.135 15.3757 202.08 15.0404 202.08 14.6562C202.08 14.1875 202.188 13.7741 202.402 13.416C202.617 13.0514 202.904 12.7487 203.262 12.5078C203.62 12.2604 204.027 12.0749 204.482 11.9512C204.945 11.8275 205.42 11.7656 205.908 11.7656C206.774 11.7656 207.549 11.9154 208.232 12.2148V13.8359C207.497 13.3542 206.65 13.1133 205.693 13.1133C205.394 13.1133 205.124 13.1491 204.883 13.2207C204.642 13.2858 204.434 13.3802 204.258 13.5039C204.089 13.6276 203.955 13.7773 203.857 13.9531C203.766 14.1224 203.721 14.3112 203.721 14.5195C203.721 14.7799 203.766 14.998 203.857 15.1738C203.955 15.3496 204.095 15.5059 204.277 15.6426C204.46 15.7793 204.681 15.903 204.941 16.0137C205.202 16.1243 205.498 16.2448 205.83 16.375C206.273 16.5443 206.67 16.7201 207.021 16.9023C207.373 17.0781 207.673 17.2799 207.92 17.5078C208.167 17.7292 208.356 17.9863 208.486 18.2793C208.623 18.5723 208.691 18.9206 208.691 19.3242C208.691 19.819 208.581 20.2487 208.359 20.6133C208.145 20.9779 207.855 21.2806 207.49 21.5215C207.126 21.7624 206.706 21.9414 206.23 22.0586C205.755 22.1758 205.257 22.2344 204.736 22.2344C203.708 22.2344 202.816 22.0358 202.061 21.6387ZM210.557 21.6387V19.9199C211.429 20.5645 212.389 20.8867 213.438 20.8867C214.844 20.8867 215.547 20.418 215.547 19.4805C215.547 19.2135 215.485 18.9889 215.361 18.8066C215.244 18.6178 215.081 18.4518 214.873 18.3086C214.671 18.1654 214.43 18.0384 214.15 17.9277C213.877 17.8105 213.581 17.6901 213.262 17.5664C212.819 17.3906 212.428 17.2148 212.09 17.0391C211.758 16.8568 211.478 16.6549 211.25 16.4336C211.029 16.2057 210.859 15.9486 210.742 15.6621C210.632 15.3757 210.576 15.0404 210.576 14.6562C210.576 14.1875 210.684 13.7741 210.898 13.416C211.113 13.0514 211.4 12.7487 211.758 12.5078C212.116 12.2604 212.523 12.0749 212.979 11.9512C213.441 11.8275 213.916 11.7656 214.404 11.7656C215.27 11.7656 216.045 11.9154 216.729 12.2148V13.8359C215.993 13.3542 215.146 13.1133 214.189 13.1133C213.89 13.1133 213.62 13.1491 213.379 13.2207C213.138 13.2858 212.93 13.3802 212.754 13.5039C212.585 13.6276 212.451 13.7773 212.354 13.9531C212.262 14.1224 212.217 14.3112 212.217 14.5195C212.217 14.7799 212.262 14.998 212.354 15.1738C212.451 15.3496 212.591 15.5059 212.773 15.6426C212.956 15.7793 213.177 15.903 213.438 16.0137C213.698 16.1243 213.994 16.2448 214.326 16.375C214.769 16.5443 215.166 16.7201 215.518 16.9023C215.869 17.0781 216.169 17.2799 216.416 17.5078C216.663 17.7292 216.852 17.9863 216.982 18.2793C217.119 18.5723 217.188 18.9206 217.188 19.3242C217.188 19.819 217.077 20.2487 216.855 20.6133C216.641 20.9779 216.351 21.2806 215.986 21.5215C215.622 21.7624 215.202 21.9414 214.727 22.0586C214.251 22.1758 213.753 22.2344 213.232 22.2344C212.204 22.2344 211.312 22.0358 210.557 21.6387ZM93.3203 49.2344C91.8424 49.2344 90.6608 48.7689 89.7754 47.8379C88.8965 46.9004 88.457 45.6602 88.457 44.1172C88.457 42.4375 88.916 41.1257 89.834 40.1816C90.752 39.2376 91.9922 38.7656 93.5547 38.7656C95.0456 38.7656 96.2077 39.2246 97.041 40.1426C97.8809 41.0605 98.3008 42.3333 98.3008 43.9609C98.3008 45.556 97.8483 46.8353 96.9434 47.7988C96.0449 48.7559 94.8372 49.2344 93.3203 49.2344ZM93.4375 40.1133C92.4089 40.1133 91.5951 40.4648 90.9961 41.168C90.3971 41.8646 90.0977 42.8281 90.0977 44.0586C90.0977 45.2435 90.4004 46.1777 91.0059 46.8613C91.6113 47.5449 92.4219 47.8867 93.4375 47.8867C94.4727 47.8867 95.2669 47.5514 95.8203 46.8809C96.3802 46.2103 96.6602 45.2565 96.6602 44.0195C96.6602 42.7695 96.3802 41.806 95.8203 41.1289C95.2669 40.4518 94.4727 40.1133 93.4375 40.1133ZM109.16 49H107.559V43.2969C107.559 41.1745 106.784 40.1133 105.234 40.1133C104.434 40.1133 103.77 40.416 103.242 41.0215C102.721 41.6204 102.461 42.3789 102.461 43.2969V49H100.859V39H102.461V40.6602H102.5C103.255 39.3971 104.349 38.7656 105.781 38.7656C106.875 38.7656 107.712 39.1204 108.291 39.8301C108.87 40.5332 109.16 41.5521 109.16 42.8867V49ZM127.422 48.4141C126.387 48.9609 125.098 49.2344 123.555 49.2344C121.562 49.2344 119.967 48.5931 118.77 47.3105C117.572 46.028 116.973 44.3451 116.973 42.2617C116.973 40.0221 117.646 38.2122 118.994 36.832C120.342 35.4518 122.051 34.7617 124.121 34.7617C125.449 34.7617 126.549 34.9538 127.422 35.3379V37.0859C126.419 36.526 125.312 36.2461 124.102 36.2461C122.493 36.2461 121.188 36.7832 120.186 37.8574C119.189 38.9316 118.691 40.3672 118.691 42.1641C118.691 43.8698 119.157 45.2305 120.088 46.2461C121.025 47.2552 122.253 47.7598 123.77 47.7598C125.176 47.7598 126.393 47.4473 127.422 46.8223V48.4141ZM134.238 49.2344C132.76 49.2344 131.579 48.7689 130.693 47.8379C129.814 46.9004 129.375 45.6602 129.375 44.1172C129.375 42.4375 129.834 41.1257 130.752 40.1816C131.67 39.2376 132.91 38.7656 134.473 38.7656C135.964 38.7656 137.126 39.2246 137.959 40.1426C138.799 41.0605 139.219 42.3333 139.219 43.9609C139.219 45.556 138.766 46.8353 137.861 47.7988C136.963 48.7559 135.755 49.2344 134.238 49.2344ZM134.355 40.1133C133.327 40.1133 132.513 40.4648 131.914 41.168C131.315 41.8646 131.016 42.8281 131.016 44.0586C131.016 45.2435 131.318 46.1777 131.924 46.8613C132.529 47.5449 133.34 47.8867 134.355 47.8867C135.391 47.8867 136.185 47.5514 136.738 46.8809C137.298 46.2103 137.578 45.2565 137.578 44.0195C137.578 42.7695 137.298 41.806 136.738 41.1289C136.185 40.4518 135.391 40.1133 134.355 40.1133ZM150.312 49H148.711V47.3008H148.672C147.93 48.5898 146.784 49.2344 145.234 49.2344C143.978 49.2344 142.972 48.7884 142.217 47.8965C141.468 46.998 141.094 45.7773 141.094 44.2344C141.094 42.5807 141.51 41.2559 142.344 40.2598C143.177 39.2637 144.287 38.7656 145.674 38.7656C147.048 38.7656 148.047 39.306 148.672 40.3867H148.711V34.1953H150.312V49ZM148.711 44.4785V43.0039C148.711 42.1966 148.444 41.513 147.91 40.9531C147.376 40.3932 146.699 40.1133 145.879 40.1133C144.902 40.1133 144.134 40.4714 143.574 41.1875C143.014 41.9036 142.734 42.8932 142.734 44.1562C142.734 45.3086 143.001 46.2201 143.535 46.8906C144.076 47.5547 144.798 47.8867 145.703 47.8867C146.595 47.8867 147.318 47.5645 147.871 46.9199C148.431 46.2754 148.711 45.4616 148.711 44.4785ZM161.592 44.4004H154.531C154.557 45.5137 154.857 46.373 155.43 46.9785C156.003 47.584 156.79 47.8867 157.793 47.8867C158.919 47.8867 159.954 47.5156 160.898 46.7734V48.2773C160.02 48.9154 158.857 49.2344 157.412 49.2344C155.999 49.2344 154.889 48.7819 154.082 47.877C153.275 46.9655 152.871 45.6862 152.871 44.0391C152.871 42.4831 153.311 41.2168 154.189 40.2402C155.075 39.2572 156.172 38.7656 157.48 38.7656C158.789 38.7656 159.801 39.1888 160.518 40.0352C161.234 40.8815 161.592 42.0566 161.592 43.5605V44.4004ZM159.951 43.043C159.945 42.1185 159.72 41.3991 159.277 40.8848C158.841 40.3704 158.232 40.1133 157.451 40.1133C156.696 40.1133 156.055 40.3835 155.527 40.9238C155 41.4642 154.674 42.1706 154.551 43.043H159.951ZM176.621 39L173.623 49H171.963L169.902 41.8418C169.824 41.5684 169.772 41.2591 169.746 40.9141H169.707C169.688 41.1484 169.619 41.4512 169.502 41.8223L167.266 49H165.664L162.637 39H164.316L166.387 46.5195C166.452 46.7474 166.497 47.0469 166.523 47.418H166.602C166.621 47.1315 166.68 46.8255 166.777 46.5L169.082 39H170.547L172.617 46.5391C172.682 46.7799 172.731 47.0794 172.764 47.4375H172.842C172.855 47.1836 172.91 46.8841 173.008 46.5391L175.039 39H176.621ZM185.635 49H184.033V47.4375H183.994C183.298 48.6354 182.272 49.2344 180.918 49.2344C179.922 49.2344 179.141 48.9707 178.574 48.4434C178.014 47.916 177.734 47.2161 177.734 46.3438C177.734 44.4753 178.835 43.388 181.035 43.082L184.033 42.6621C184.033 40.9629 183.346 40.1133 181.973 40.1133C180.768 40.1133 179.681 40.5234 178.711 41.3438V39.7031C179.694 39.0781 180.827 38.7656 182.109 38.7656C184.46 38.7656 185.635 40.0091 185.635 42.4961V49ZM184.033 43.9414L181.621 44.2734C180.879 44.3776 180.319 44.5632 179.941 44.8301C179.564 45.0905 179.375 45.556 179.375 46.2266C179.375 46.7148 179.548 47.1152 179.893 47.4277C180.244 47.7337 180.71 47.8867 181.289 47.8867C182.083 47.8867 182.738 47.61 183.252 47.0566C183.773 46.4967 184.033 45.7904 184.033 44.9375V43.9414ZM193.867 40.6211C193.587 40.4062 193.184 40.2988 192.656 40.2988C191.973 40.2988 191.4 40.6211 190.938 41.2656C190.482 41.9102 190.254 42.7891 190.254 43.9023V49H188.652V39H190.254V41.0605H190.293C190.521 40.3574 190.869 39.8105 191.338 39.4199C191.807 39.0228 192.331 38.8242 192.91 38.8242C193.327 38.8242 193.646 38.8698 193.867 38.9609V40.6211ZM195 48.6387V46.9199C195.872 47.5645 196.833 47.8867 197.881 47.8867C199.287 47.8867 199.99 47.418 199.99 46.4805C199.99 46.2135 199.928 45.9889 199.805 45.8066C199.688 45.6178 199.525 45.4518 199.316 45.3086C199.115 45.1654 198.874 45.0384 198.594 44.9277C198.32 44.8105 198.024 44.6901 197.705 44.5664C197.262 44.3906 196.872 44.2148 196.533 44.0391C196.201 43.8568 195.921 43.6549 195.693 43.4336C195.472 43.2057 195.303 42.9486 195.186 42.6621C195.075 42.3757 195.02 42.0404 195.02 41.6562C195.02 41.1875 195.127 40.7741 195.342 40.416C195.557 40.0514 195.843 39.7487 196.201 39.5078C196.559 39.2604 196.966 39.0749 197.422 38.9512C197.884 38.8275 198.359 38.7656 198.848 38.7656C199.714 38.7656 200.488 38.9154 201.172 39.2148V40.8359C200.436 40.3542 199.59 40.1133 198.633 40.1133C198.333 40.1133 198.063 40.1491 197.822 40.2207C197.581 40.2858 197.373 40.3802 197.197 40.5039C197.028 40.6276 196.895 40.7773 196.797 40.9531C196.706 41.1224 196.66 41.3112 196.66 41.5195C196.66 41.7799 196.706 41.998 196.797 42.1738C196.895 42.3496 197.035 42.5059 197.217 42.6426C197.399 42.7793 197.62 42.903 197.881 43.0137C198.141 43.1243 198.438 43.2448 198.77 43.375C199.212 43.5443 199.609 43.7201 199.961 43.9023C200.312 44.0781 200.612 44.2799 200.859 44.5078C201.107 44.7292 201.296 44.9863 201.426 45.2793C201.562 45.5723 201.631 45.9206 201.631 46.3242C201.631 46.819 201.52 47.2487 201.299 47.6133C201.084 47.9779 200.794 48.2806 200.43 48.5215C200.065 48.7624 199.645 48.9414 199.17 49.0586C198.695 49.1758 198.197 49.2344 197.676 49.2344C196.647 49.2344 195.755 49.0358 195 48.6387Z" fill="black"/>
</svg>
