<svg width="240" height="60" viewBox="0 0 240 60" fill="none" xmlns="http://www.w3.org/2000/svg">
<rect x="0.5" y="0.5" width="239" height="59" rx="14.5" fill="white" stroke="black"/>
<path d="M37.1197 47.1006C35.2881 48.8756 32.7473 50 30.0295 50C27.1935 50 24.653 48.8756 22.7622 46.982L27.5481 42.1893C28.1978 42.8403 29.0251 43.1951 30.0295 43.1951C30.9749 43.1951 31.8611 42.781 32.5111 42.1893L42.2008 32.4853C42.8508 31.8343 43.2054 31.0058 43.2054 30C43.2054 29.0532 42.7919 28.1657 42.2008 27.5147C41.5511 26.864 40.7238 26.5089 39.7195 26.5089C38.7149 26.5089 37.8878 26.923 37.2378 27.5147L27.5481 37.2783C25.7165 39.1126 23.1168 40.2962 20.2805 40.2962C17.4446 40.2962 14.9041 39.1126 13.0132 37.2783C11.1816 35.4437 10 32.8401 10 30C10 27.1599 11.123 24.6153 13.0135 22.7217L22.7032 13.0177C24.5349 11.1834 27.1346 10 29.9708 10C32.8068 10 35.3473 11.1244 37.2381 13.018L32.4522 17.8107C31.8024 17.1597 30.9751 16.8049 29.9708 16.8049C28.9662 16.8049 28.1392 17.219 27.4892 17.8107L17.7992 27.5147C17.1492 28.1657 16.7946 28.9942 16.7946 30C16.7946 30.9468 17.2081 31.8343 17.7992 32.4853C18.4489 33.136 19.2762 33.4911 20.2805 33.4911C21.2259 33.4911 22.1122 33.077 22.7622 32.4853L32.4519 22.781C34.2835 20.9467 36.8832 19.7633 39.7195 19.7633C42.5554 19.7633 45.0959 20.8877 46.9868 22.7813C48.8184 24.615 50 27.2186 50 30.059C50 32.8991 48.877 35.4434 46.9865 37.337L37.1197 47.1006Z" stroke="black" stroke-width="3" stroke-linecap="round" stroke-linejoin="round"/>
<path d="M73.1445 21.4336V19.5C73.3659 19.6953 73.6296 19.8711 73.9355 20.0273C74.248 20.1836 74.5736 20.3171 74.9121 20.4277C75.2572 20.5319 75.6022 20.6133 75.9473 20.6719C76.2923 20.7305 76.6113 20.7598 76.9043 20.7598C77.9134 20.7598 78.6654 20.5742 79.1602 20.2031C79.6615 19.8255 79.9121 19.2852 79.9121 18.582C79.9121 18.2044 79.8275 17.8757 79.6582 17.5957C79.4954 17.3158 79.2676 17.0618 78.9746 16.834C78.6816 16.5996 78.3333 16.3783 77.9297 16.1699C77.5326 15.9551 77.1029 15.7305 76.6406 15.4961C76.1523 15.2487 75.6966 14.998 75.2734 14.7441C74.8503 14.4902 74.4824 14.2103 74.1699 13.9043C73.8574 13.5983 73.61 13.2533 73.4277 12.8691C73.252 12.4785 73.1641 12.0228 73.1641 11.502C73.1641 10.8639 73.304 10.3105 73.584 9.8418C73.8639 9.36654 74.2318 8.97591 74.6875 8.66992C75.1432 8.36393 75.6608 8.13607 76.2402 7.98633C76.8262 7.83659 77.4219 7.76172 78.0273 7.76172C79.4076 7.76172 80.4134 7.92773 81.0449 8.25977V10.1055C80.2181 9.53255 79.1569 9.24609 77.8613 9.24609C77.5033 9.24609 77.1452 9.28516 76.7871 9.36328C76.429 9.4349 76.11 9.55534 75.8301 9.72461C75.5501 9.89388 75.3223 10.112 75.1465 10.3789C74.9707 10.6458 74.8828 10.9714 74.8828 11.3555C74.8828 11.7135 74.9479 12.0228 75.0781 12.2832C75.2148 12.5436 75.4134 12.7812 75.6738 12.9961C75.9342 13.2109 76.25 13.4193 76.6211 13.6211C76.9987 13.8229 77.4316 14.0443 77.9199 14.2852C78.4212 14.5326 78.8965 14.793 79.3457 15.0664C79.7949 15.3398 80.1888 15.6426 80.5273 15.9746C80.8659 16.3066 81.1328 16.6745 81.3281 17.0781C81.5299 17.4818 81.6309 17.944 81.6309 18.4648C81.6309 19.1549 81.4941 19.7409 81.2207 20.2227C80.9538 20.6979 80.5892 21.0853 80.127 21.3848C79.6712 21.6842 79.1439 21.8991 78.5449 22.0293C77.946 22.166 77.3145 22.2344 76.6504 22.2344C76.429 22.2344 76.1556 22.2148 75.8301 22.1758C75.5046 22.1432 75.1725 22.0911 74.834 22.0195C74.4954 21.9544 74.1732 21.873 73.8672 21.7754C73.5677 21.6712 73.3268 21.5573 73.1445 21.4336ZM92.2461 17.4004H85.1855C85.2116 18.5137 85.5111 19.373 86.084 19.9785C86.6569 20.584 87.4447 20.8867 88.4473 20.8867C89.5736 20.8867 90.6087 20.5156 91.5527 19.7734V21.2773C90.6738 21.9154 89.5117 22.2344 88.0664 22.2344C86.6536 22.2344 85.5436 21.7819 84.7363 20.877C83.929 19.9655 83.5254 18.6862 83.5254 17.0391C83.5254 15.4831 83.9648 14.2168 84.8438 13.2402C85.7292 12.2572 86.8262 11.7656 88.1348 11.7656C89.4434 11.7656 90.4557 12.1888 91.1719 13.0352C91.888 13.8815 92.2461 15.0566 92.2461 16.5605V17.4004ZM90.6055 16.043C90.599 15.1185 90.3743 14.3991 89.9316 13.8848C89.4954 13.3704 88.8867 13.1133 88.1055 13.1133C87.3503 13.1133 86.709 13.3835 86.1816 13.9238C85.6543 14.4642 85.3288 15.1706 85.2051 16.043H90.6055ZM102.715 17.4004H95.6543C95.6803 18.5137 95.9798 19.373 96.5527 19.9785C97.1257 20.584 97.9134 20.8867 98.916 20.8867C100.042 20.8867 101.077 20.5156 102.021 19.7734V21.2773C101.143 21.9154 99.9805 22.2344 98.5352 22.2344C97.1224 22.2344 96.0124 21.7819 95.2051 20.877C94.3978 19.9655 93.9941 18.6862 93.9941 17.0391C93.9941 15.4831 94.4336 14.2168 95.3125 13.2402C96.1979 12.2572 97.2949 11.7656 98.6035 11.7656C99.9121 11.7656 100.924 12.1888 101.641 13.0352C102.357 13.8815 102.715 15.0566 102.715 16.5605V17.4004ZM101.074 16.043C101.068 15.1185 100.843 14.3991 100.4 13.8848C99.9642 13.3704 99.3555 13.1133 98.5742 13.1133C97.819 13.1133 97.1777 13.3835 96.6504 13.9238C96.123 14.4642 95.7975 15.1706 95.6738 16.043H101.074ZM124.834 22H123.232V16.2578C123.232 15.151 123.06 14.3503 122.715 13.8555C122.376 13.3607 121.803 13.1133 120.996 13.1133C120.312 13.1133 119.73 13.4258 119.248 14.0508C118.773 14.6758 118.535 15.4245 118.535 16.2969V22H116.934V16.0625C116.934 14.0964 116.175 13.1133 114.658 13.1133C113.955 13.1133 113.376 13.4095 112.92 14.002C112.464 14.5879 112.236 15.3529 112.236 16.2969V22H110.635V12H112.236V13.582H112.275C112.985 12.3711 114.02 11.7656 115.381 11.7656C116.064 11.7656 116.66 11.9577 117.168 12.3418C117.676 12.7194 118.024 13.2174 118.213 13.8359C118.955 12.4557 120.062 11.7656 121.533 11.7656C123.734 11.7656 124.834 13.123 124.834 15.8379V22ZM135.82 12L131.221 23.6016C130.4 25.6719 129.248 26.707 127.764 26.707C127.347 26.707 126.999 26.6647 126.719 26.5801V25.1445C127.064 25.2617 127.38 25.3203 127.666 25.3203C128.473 25.3203 129.079 24.8385 129.482 23.875L130.283 21.9805L126.377 12H128.154L130.859 19.6953C130.892 19.793 130.96 20.0469 131.064 20.457H131.123C131.156 20.3008 131.221 20.0534 131.318 19.7148L134.16 12H135.82ZM144.678 20.5547H144.639V26.5996H143.037V12H144.639V13.7578H144.678C145.465 12.4297 146.618 11.7656 148.135 11.7656C149.424 11.7656 150.43 12.2148 151.152 13.1133C151.875 14.0052 152.236 15.2031 152.236 16.707C152.236 18.3802 151.829 19.7214 151.016 20.7305C150.202 21.7331 149.089 22.2344 147.676 22.2344C146.38 22.2344 145.381 21.6745 144.678 20.5547ZM144.639 16.5215V17.918C144.639 18.7448 144.906 19.4479 145.439 20.0273C145.98 20.6003 146.663 20.8867 147.49 20.8867C148.46 20.8867 149.219 20.5156 149.766 19.7734C150.319 19.0312 150.596 17.9993 150.596 16.6777C150.596 15.5645 150.339 14.6921 149.824 14.0605C149.31 13.429 148.613 13.1133 147.734 13.1133C146.803 13.1133 146.055 13.4388 145.488 14.0898C144.922 14.7344 144.639 15.5449 144.639 16.5215ZM160.01 13.6211C159.73 13.4062 159.326 13.2988 158.799 13.2988C158.115 13.2988 157.542 13.6211 157.08 14.2656C156.624 14.9102 156.396 15.7891 156.396 16.9023V22H154.795V12H156.396V14.0605H156.436C156.663 13.3574 157.012 12.8105 157.48 12.4199C157.949 12.0228 158.473 11.8242 159.053 11.8242C159.469 11.8242 159.788 11.8698 160.01 11.9609V13.6211ZM165.928 22.2344C164.45 22.2344 163.268 21.7689 162.383 20.8379C161.504 19.9004 161.064 18.6602 161.064 17.1172C161.064 15.4375 161.523 14.1257 162.441 13.1816C163.359 12.2376 164.6 11.7656 166.162 11.7656C167.653 11.7656 168.815 12.2246 169.648 13.1426C170.488 14.0605 170.908 15.3333 170.908 16.9609C170.908 18.556 170.456 19.8353 169.551 20.7988C168.652 21.7559 167.445 22.2344 165.928 22.2344ZM166.045 13.1133C165.016 13.1133 164.202 13.4648 163.604 14.168C163.005 14.8646 162.705 15.8281 162.705 17.0586C162.705 18.2435 163.008 19.1777 163.613 19.8613C164.219 20.5449 165.029 20.8867 166.045 20.8867C167.08 20.8867 167.874 20.5514 168.428 19.8809C168.988 19.2103 169.268 18.2565 169.268 17.0195C169.268 15.7695 168.988 14.806 168.428 14.1289C167.874 13.4518 167.08 13.1133 166.045 13.1133ZM182.002 21.1992C182.002 24.8711 180.244 26.707 176.729 26.707C175.492 26.707 174.411 26.4727 173.486 26.0039V24.4023C174.613 25.0273 175.687 25.3398 176.709 25.3398C179.17 25.3398 180.4 24.0312 180.4 21.4141V20.3203H180.361C179.6 21.5964 178.454 22.2344 176.924 22.2344C175.68 22.2344 174.678 21.7917 173.916 20.9062C173.161 20.0143 172.783 18.8197 172.783 17.3223C172.783 15.623 173.19 14.2721 174.004 13.2695C174.824 12.2669 175.944 11.7656 177.363 11.7656C178.711 11.7656 179.71 12.306 180.361 13.3867H180.4V12H182.002V21.1992ZM180.4 17.4785V16.0039C180.4 15.2096 180.13 14.5293 179.59 13.9629C179.056 13.3965 178.389 13.1133 177.588 13.1133C176.598 13.1133 175.824 13.4746 175.264 14.1973C174.704 14.9134 174.424 15.9193 174.424 17.2148C174.424 18.3281 174.691 19.2201 175.225 19.8906C175.765 20.5547 176.478 20.8867 177.363 20.8867C178.262 20.8867 178.991 20.5677 179.551 19.9297C180.117 19.2917 180.4 18.4746 180.4 17.4785ZM190.459 13.6211C190.179 13.4062 189.775 13.2988 189.248 13.2988C188.564 13.2988 187.992 13.6211 187.529 14.2656C187.074 14.9102 186.846 15.7891 186.846 16.9023V22H185.244V12H186.846V14.0605H186.885C187.113 13.3574 187.461 12.8105 187.93 12.4199C188.398 12.0228 188.923 11.8242 189.502 11.8242C189.919 11.8242 190.238 11.8698 190.459 11.9609V13.6211ZM200.234 17.4004H193.174C193.2 18.5137 193.499 19.373 194.072 19.9785C194.645 20.584 195.433 20.8867 196.436 20.8867C197.562 20.8867 198.597 20.5156 199.541 19.7734V21.2773C198.662 21.9154 197.5 22.2344 196.055 22.2344C194.642 22.2344 193.532 21.7819 192.725 20.877C191.917 19.9655 191.514 18.6862 191.514 17.0391C191.514 15.4831 191.953 14.2168 192.832 13.2402C193.717 12.2572 194.814 11.7656 196.123 11.7656C197.432 11.7656 198.444 12.1888 199.16 13.0352C199.876 13.8815 200.234 15.0566 200.234 16.5605V17.4004ZM198.594 16.043C198.587 15.1185 198.363 14.3991 197.92 13.8848C197.484 13.3704 196.875 13.1133 196.094 13.1133C195.339 13.1133 194.697 13.3835 194.17 13.9238C193.643 14.4642 193.317 15.1706 193.193 16.043H198.594ZM202.061 21.6387V19.9199C202.933 20.5645 203.893 20.8867 204.941 20.8867C206.348 20.8867 207.051 20.418 207.051 19.4805C207.051 19.2135 206.989 18.9889 206.865 18.8066C206.748 18.6178 206.585 18.4518 206.377 18.3086C206.175 18.1654 205.934 18.0384 205.654 17.9277C205.381 17.8105 205.085 17.6901 204.766 17.5664C204.323 17.3906 203.932 17.2148 203.594 17.0391C203.262 16.8568 202.982 16.6549 202.754 16.4336C202.533 16.2057 202.363 15.9486 202.246 15.6621C202.135 15.3757 202.08 15.0404 202.08 14.6562C202.08 14.1875 202.188 13.7741 202.402 13.416C202.617 13.0514 202.904 12.7487 203.262 12.5078C203.62 12.2604 204.027 12.0749 204.482 11.9512C204.945 11.8275 205.42 11.7656 205.908 11.7656C206.774 11.7656 207.549 11.9154 208.232 12.2148V13.8359C207.497 13.3542 206.65 13.1133 205.693 13.1133C205.394 13.1133 205.124 13.1491 204.883 13.2207C204.642 13.2858 204.434 13.3802 204.258 13.5039C204.089 13.6276 203.955 13.7773 203.857 13.9531C203.766 14.1224 203.721 14.3112 203.721 14.5195C203.721 14.7799 203.766 14.998 203.857 15.1738C203.955 15.3496 204.095 15.5059 204.277 15.6426C204.46 15.7793 204.681 15.903 204.941 16.0137C205.202 16.1243 205.498 16.2448 205.83 16.375C206.273 16.5443 206.67 16.7201 207.021 16.9023C207.373 17.0781 207.673 17.2799 207.92 17.5078C208.167 17.7292 208.356 17.9863 208.486 18.2793C208.623 18.5723 208.691 18.9206 208.691 19.3242C208.691 19.819 208.581 20.2487 208.359 20.6133C208.145 20.9779 207.855 21.2806 207.49 21.5215C207.126 21.7624 206.706 21.9414 206.23 22.0586C205.755 22.1758 205.257 22.2344 204.736 22.2344C203.708 22.2344 202.816 22.0358 202.061 21.6387ZM210.557 21.6387V19.9199C211.429 20.5645 212.389 20.8867 213.438 20.8867C214.844 20.8867 215.547 20.418 215.547 19.4805C215.547 19.2135 215.485 18.9889 215.361 18.8066C215.244 18.6178 215.081 18.4518 214.873 18.3086C214.671 18.1654 214.43 18.0384 214.15 17.9277C213.877 17.8105 213.581 17.6901 213.262 17.5664C212.819 17.3906 212.428 17.2148 212.09 17.0391C211.758 16.8568 211.478 16.6549 211.25 16.4336C211.029 16.2057 210.859 15.9486 210.742 15.6621C210.632 15.3757 210.576 15.0404 210.576 14.6562C210.576 14.1875 210.684 13.7741 210.898 13.416C211.113 13.0514 211.4 12.7487 211.758 12.5078C212.116 12.2604 212.523 12.0749 212.979 11.9512C213.441 11.8275 213.916 11.7656 214.404 11.7656C215.27 11.7656 216.045 11.9154 216.729 12.2148V13.8359C215.993 13.3542 215.146 13.1133 214.189 13.1133C213.89 13.1133 213.62 13.1491 213.379 13.2207C213.138 13.2858 212.93 13.3802 212.754 13.5039C212.585 13.6276 212.451 13.7773 212.354 13.9531C212.262 14.1224 212.217 14.3112 212.217 14.5195C212.217 14.7799 212.262 14.998 212.354 15.1738C212.451 15.3496 212.591 15.5059 212.773 15.6426C212.956 15.7793 213.177 15.903 213.438 16.0137C213.698 16.1243 213.994 16.2448 214.326 16.375C214.769 16.5443 215.166 16.7201 215.518 16.9023C215.869 17.0781 216.169 17.2799 216.416 17.5078C216.663 17.7292 216.852 17.9863 216.982 18.2793C217.119 18.5723 217.188 18.9206 217.188 19.3242C217.188 19.819 217.077 20.2487 216.855 20.6133C216.641 20.9779 216.351 21.2806 215.986 21.5215C215.622 21.7624 215.202 21.9414 214.727 22.0586C214.251 22.1758 213.753 22.2344 213.232 22.2344C212.204 22.2344 211.312 22.0358 210.557 21.6387ZM109.648 49.2344C108.171 49.2344 106.989 48.7689 106.104 47.8379C105.225 46.9004 104.785 45.6602 104.785 44.1172C104.785 42.4375 105.244 41.1257 106.162 40.1816C107.08 39.2376 108.32 38.7656 109.883 38.7656C111.374 38.7656 112.536 39.2246 113.369 40.1426C114.209 41.0605 114.629 42.3333 114.629 43.9609C114.629 45.556 114.176 46.8353 113.271 47.7988C112.373 48.7559 111.165 49.2344 109.648 49.2344ZM109.766 40.1133C108.737 40.1133 107.923 40.4648 107.324 41.168C106.725 41.8646 106.426 42.8281 106.426 44.0586C106.426 45.2435 106.729 46.1777 107.334 46.8613C107.939 47.5449 108.75 47.8867 109.766 47.8867C110.801 47.8867 111.595 47.5514 112.148 46.8809C112.708 46.2103 112.988 45.2565 112.988 44.0195C112.988 42.7695 112.708 41.806 112.148 41.1289C111.595 40.4518 110.801 40.1133 109.766 40.1133ZM125.488 49H123.887V43.2969C123.887 41.1745 123.112 40.1133 121.562 40.1133C120.762 40.1133 120.098 40.416 119.57 41.0215C119.049 41.6204 118.789 42.3789 118.789 43.2969V49H117.188V39H118.789V40.6602H118.828C119.583 39.3971 120.677 38.7656 122.109 38.7656C123.203 38.7656 124.04 39.1204 124.619 39.8301C125.199 40.5332 125.488 41.5521 125.488 42.8867V49ZM133.564 48.4336V46.5C133.786 46.6953 134.049 46.8711 134.355 47.0273C134.668 47.1836 134.993 47.3171 135.332 47.4277C135.677 47.5319 136.022 47.6133 136.367 47.6719C136.712 47.7305 137.031 47.7598 137.324 47.7598C138.333 47.7598 139.085 47.5742 139.58 47.2031C140.081 46.8255 140.332 46.2852 140.332 45.582C140.332 45.2044 140.247 44.8757 140.078 44.5957C139.915 44.3158 139.688 44.0618 139.395 43.834C139.102 43.5996 138.753 43.3783 138.35 43.1699C137.952 42.9551 137.523 42.7305 137.061 42.4961C136.572 42.2487 136.117 41.998 135.693 41.7441C135.27 41.4902 134.902 41.2103 134.59 40.9043C134.277 40.5983 134.03 40.2533 133.848 39.8691C133.672 39.4785 133.584 39.0228 133.584 38.502C133.584 37.8639 133.724 37.3105 134.004 36.8418C134.284 36.3665 134.652 35.9759 135.107 35.6699C135.563 35.3639 136.081 35.1361 136.66 34.9863C137.246 34.8366 137.842 34.7617 138.447 34.7617C139.827 34.7617 140.833 34.9277 141.465 35.2598V37.1055C140.638 36.5326 139.577 36.2461 138.281 36.2461C137.923 36.2461 137.565 36.2852 137.207 36.3633C136.849 36.4349 136.53 36.5553 136.25 36.7246C135.97 36.8939 135.742 37.112 135.566 37.3789C135.391 37.6458 135.303 37.9714 135.303 38.3555C135.303 38.7135 135.368 39.0228 135.498 39.2832C135.635 39.5436 135.833 39.7812 136.094 39.9961C136.354 40.2109 136.67 40.4193 137.041 40.6211C137.419 40.8229 137.852 41.0443 138.34 41.2852C138.841 41.5326 139.316 41.793 139.766 42.0664C140.215 42.3398 140.609 42.6426 140.947 42.9746C141.286 43.3066 141.553 43.6745 141.748 44.0781C141.95 44.4818 142.051 44.944 142.051 45.4648C142.051 46.1549 141.914 46.7409 141.641 47.2227C141.374 47.6979 141.009 48.0853 140.547 48.3848C140.091 48.6842 139.564 48.8991 138.965 49.0293C138.366 49.166 137.734 49.2344 137.07 49.2344C136.849 49.2344 136.576 49.2148 136.25 49.1758C135.924 49.1432 135.592 49.0911 135.254 49.0195C134.915 48.9544 134.593 48.873 134.287 48.7754C133.988 48.6712 133.747 48.5573 133.564 48.4336ZM148.623 48.9023C148.245 49.1107 147.747 49.2148 147.129 49.2148C145.378 49.2148 144.502 48.2383 144.502 46.2852V40.3672H142.783V39H144.502V36.5586L146.104 36.041V39H148.623V40.3672H146.104V46.002C146.104 46.6725 146.217 47.151 146.445 47.4375C146.673 47.724 147.051 47.8672 147.578 47.8672C147.982 47.8672 148.33 47.7565 148.623 47.5352V48.9023ZM158.799 44.4004H151.738C151.764 45.5137 152.064 46.373 152.637 46.9785C153.21 47.584 153.997 47.8867 155 47.8867C156.126 47.8867 157.161 47.5156 158.105 46.7734V48.2773C157.227 48.9154 156.064 49.2344 154.619 49.2344C153.206 49.2344 152.096 48.7819 151.289 47.877C150.482 46.9655 150.078 45.6862 150.078 44.0391C150.078 42.4831 150.518 41.2168 151.396 40.2402C152.282 39.2572 153.379 38.7656 154.688 38.7656C155.996 38.7656 157.008 39.1888 157.725 40.0352C158.441 40.8815 158.799 42.0566 158.799 43.5605V44.4004ZM157.158 43.043C157.152 42.1185 156.927 41.3991 156.484 40.8848C156.048 40.3704 155.439 40.1133 154.658 40.1133C153.903 40.1133 153.262 40.3835 152.734 40.9238C152.207 41.4642 151.882 42.1706 151.758 43.043H157.158ZM162.871 47.5547H162.832V53.5996H161.23V39H162.832V40.7578H162.871C163.659 39.4297 164.811 38.7656 166.328 38.7656C167.617 38.7656 168.623 39.2148 169.346 40.1133C170.068 41.0052 170.43 42.2031 170.43 43.707C170.43 45.3802 170.023 46.7214 169.209 47.7305C168.395 48.7331 167.282 49.2344 165.869 49.2344C164.574 49.2344 163.574 48.6745 162.871 47.5547ZM162.832 43.5215V44.918C162.832 45.7448 163.099 46.4479 163.633 47.0273C164.173 47.6003 164.857 47.8867 165.684 47.8867C166.654 47.8867 167.412 47.5156 167.959 46.7734C168.512 46.0312 168.789 44.9993 168.789 43.6777C168.789 42.5645 168.532 41.6921 168.018 41.0605C167.503 40.429 166.807 40.1133 165.928 40.1133C164.997 40.1133 164.248 40.4388 163.682 41.0898C163.115 41.7344 162.832 42.5449 162.832 43.5215ZM173.809 36.4609C173.522 36.4609 173.278 36.3633 173.076 36.168C172.874 35.9727 172.773 35.7253 172.773 35.4258C172.773 35.1263 172.874 34.8789 173.076 34.6836C173.278 34.4818 173.522 34.3809 173.809 34.3809C174.102 34.3809 174.349 34.4818 174.551 34.6836C174.759 34.8789 174.863 35.1263 174.863 35.4258C174.863 35.7122 174.759 35.9564 174.551 36.1582C174.349 36.36 174.102 36.4609 173.809 36.4609ZM174.59 49H172.988V39H174.59V49ZM186.133 49H183.887L179.473 44.1953H179.434V49H177.832V34.1953H179.434V43.5801H179.473L183.672 39H185.771L181.133 43.8242L186.133 49Z" fill="black"/>
</svg>
